# xmcd CD database file generated by freedbAccess_ocx
#
# Track frame offsets:
#       150
#       9773
#       20386
#       33969
#       47488
#       58880
#       74997
#       85486
#       97222
#       110003
#       121863
#       134841
#       145437
#
# Disc length: 2110 seconds
#
# Revision: 0
# Processed by: cddbd v1.4PL0 Copyright (c) Steve Scherf et al.
# Submitted via: CDnGo 2.00
#
DISCID=c2083c0d
DTITLE=Brzdari - Vlak ma cas
DYEAR=2003
DGENRE=Country
TTITLE0=Ashes Of Love
TTITLE1=Byvas fer
TTITLE2=Blue Ridge Mountain Home
TTITLE3=Home Sweet Home
TTITLE4=Srdce dat lasce napul
TTITLE5=Pribeh umirajiciho vojaka
TTITLE6=Fox On The Run
TTITLE7=Horsky kostelik
TTITLE8=Blue Birds Are Singing
TTITLE9=Pickaway
TTITLE10=We'll Meet Again Sweetheart
TTITLE11=Chces zas byt mym snum ciím dal bliz
TTITLE12=Vlak ma cas
EXTD=
EXTT0=
EXTT1=
EXTT2=
EXTT3=
EXTT4=
EXTT5=
EXTT6=
EXTT7=
EXTT8=
EXTT9=
EXTT10=
EXTT11=
EXTT12=
PLAYORDER=
